<?xml version="1.0" encoding="UTF-8" standalone="no"?>
<!-- Created with Inkscape (http://www.inkscape.org/) -->

<svg
   width="500mm"
   height="500mm"
   viewBox="0 0 500 500"
   version="1.1"
   id="svg493"
   inkscape:version="1.2.2 (b0a8486, 2022-12-01)"
   sodipodi:docname="logo.svg"
   xml:space="preserve"
   xmlns:inkscape="http://www.inkscape.org/namespaces/inkscape"
   xmlns:sodipodi="http://sodipodi.sourceforge.net/DTD/sodipodi-0.dtd"
   xmlns:xlink="http://www.w3.org/1999/xlink"
   xmlns="http://www.w3.org/2000/svg"
   xmlns:svg="http://www.w3.org/2000/svg"><sodipodi:namedview
     id="namedview495"
     pagecolor="#ffffff"
     bordercolor="#000000"
     borderopacity="0.25"
     inkscape:showpageshadow="2"
     inkscape:pageopacity="0.0"
     inkscape:pagecheckerboard="0"
     inkscape:deskcolor="#d1d1d1"
     inkscape:document-units="px"
     showgrid="false"
     inkscape:zoom="0.20195385"
     inkscape:cx="1062.1238"
     inkscape:cy="735.31651"
     inkscape:window-width="1440"
     inkscape:window-height="847"
     inkscape:window-x="0"
     inkscape:window-y="25"
     inkscape:window-maximized="0"
     inkscape:current-layer="layer1" /><defs
     id="defs490"><rect
       x="335.08346"
       y="1232.1298"
       width="1385.7097"
       height="342.06436"
       id="rect11657" /><inkscape:path-effect
       effect="bspline"
       id="path-effect3735"
       is_visible="true"
       lpeversion="1"
       weight="33.333333"
       steps="2"
       helper_size="0"
       apply_no_weight="true"
       apply_with_weight="true"
       only_selected="false" /><linearGradient
       inkscape:collect="always"
       id="linearGradient48075"><stop
         style="stop-color:#9bc78a;stop-opacity:0.61805558;"
         offset="0"
         id="stop48071" /><stop
         style="stop-color:#9bc78a;stop-opacity:1;"
         offset="1"
         id="stop48073" /></linearGradient><linearGradient
       inkscape:collect="always"
       id="linearGradient45799"><stop
         style="stop-color:#ea487d;stop-opacity:1;"
         offset="0"
         id="stop45795" /><stop
         style="stop-color:#c42869;stop-opacity:1;"
         offset="1"
         id="stop45797" /></linearGradient><linearGradient
       inkscape:collect="always"
       id="linearGradient45789"><stop
         style="stop-color:#9bc78a;stop-opacity:0.3125;"
         offset="0"
         id="stop45785" /><stop
         style="stop-color:#9bc78a;stop-opacity:1;"
         offset="1"
         id="stop45787" /></linearGradient><linearGradient
       inkscape:collect="always"
       id="linearGradient37159"><stop
         style="stop-color:#fe8d69;stop-opacity:1;"
         offset="0.18243243"
         id="stop37155" /><stop
         style="stop-color:#fd9432;stop-opacity:0;"
         offset="1"
         id="stop37157" /></linearGradient><linearGradient
       inkscape:collect="always"
       id="linearGradient32942"><stop
         style="stop-color:#f68c71;stop-opacity:1;"
         offset="0.23310813"
         id="stop32938" /><stop
         style="stop-color:#fddebc;stop-opacity:0.96527779;"
         offset="1"
         id="stop32940" /></linearGradient><inkscape:path-effect
       effect="spiro"
       id="path-effect26884"
       is_visible="true"
       lpeversion="1" /><inkscape:path-effect
       effect="spiro"
       id="path-effect24763"
       is_visible="true"
       lpeversion="1" /><inkscape:path-effect
       effect="spiro"
       id="path-effect24744"
       is_visible="true"
       lpeversion="1" /><inkscape:path-effect
       effect="spiro"
       id="path-effect9088"
       is_visible="true"
       lpeversion="1" /><inkscape:path-effect
       effect="spiro"
       id="path-effect1763"
       is_visible="true"
       lpeversion="1" /><inkscape:path-effect
       effect="spiro"
       id="path-effect1133"
       is_visible="true"
       lpeversion="1" /><inkscape:path-effect
       effect="spiro"
       id="path-effect1129"
       is_visible="true"
       lpeversion="1" /><clipPath
       clipPathUnits="userSpaceOnUse"
       id="clipPath8918"><path
         id="path8920"
         style="fill:#ff0000;fill-opacity:1;fill-rule:nonzero;stroke:none;stroke-width:0.264583"
         d="M 158.11179,136.10487 V 254.7059 h 98.21882 V 143.83618 c -0.295,-0.36052 -0.57906,-0.7302 -0.88781,-1.079 -0.2967,-0.38296 -0.64606,-0.71779 -0.97255,-1.07384 -0.16222,-0.15693 -0.38149,-0.35505 -0.52141,-0.46664 -0.26214,-0.22776 -0.5318,-0.40743 -0.7829,-0.65525 -0.0902,-0.0935 -0.17211,-0.1942 -0.25321,-0.29559 -0.98135,-1.22738 -0.68561,-2.32588 0.063,-2.64274 -0.77226,-0.28786 -1.28855,-0.59865 -0.22944,-1.03663 0.28392,-0.11741 0.54863,-0.22213 0.85059,-0.27543 0.26957,-0.0666 0.53808,-0.13754 0.80719,-0.20619 z m 98.21882,3.08715 c -0.077,0.0656 -0.15702,0.12728 -0.23617,0.19017 0.0801,0.0725 0.15863,0.14633 0.23617,0.22169 z" /></clipPath><filter
       inkscape:collect="always"
       style="color-interpolation-filters:sRGB"
       id="filter27308"
       x="-0.28205455"
       y="-0.11996037"
       width="1.5641091"
       height="1.2399207"><feGaussianBlur
         inkscape:collect="always"
         stdDeviation="3.2372701"
         id="feGaussianBlur27310" /></filter><filter
       inkscape:collect="always"
       style="color-interpolation-filters:sRGB"
       id="filter27369"
       x="-0.24683293"
       y="-0.085864484"
       width="1.4936659"
       height="1.171729"><feGaussianBlur
         inkscape:collect="always"
         stdDeviation="1.1450336"
         id="feGaussianBlur27371" /></filter><filter
       inkscape:collect="always"
       style="color-interpolation-filters:sRGB"
       id="filter27376"
       x="-0.29422074"
       y="-0.10533585"
       width="1.5884415"
       height="1.2106717"><feGaussianBlur
         inkscape:collect="always"
         stdDeviation="1.0735444"
         id="feGaussianBlur27378" /></filter><radialGradient
       inkscape:collect="always"
       xlink:href="#linearGradient32942"
       id="radialGradient32944"
       cx="267.6796"
       cy="232.55157"
       fx="267.6796"
       fy="232.55157"
       r="66.027951"
       gradientTransform="matrix(0.96611079,0.25812777,-0.33126502,1.2398461,83.595782,-121.51201)"
       gradientUnits="userSpaceOnUse" /><radialGradient
       inkscape:collect="always"
       xlink:href="#linearGradient37159"
       id="radialGradient37161"
       cx="212.91716"
       cy="225.79866"
       fx="212.91716"
       fy="225.79866"
       r="52.191399"
       gradientTransform="matrix(0.99722677,-0.07442288,0.15239545,2.0420178,-37.870782,-209.52078)"
       gradientUnits="userSpaceOnUse" /><linearGradient
       inkscape:collect="always"
       xlink:href="#linearGradient45789"
       id="linearGradient45791"
       x1="307.62732"
       y1="57.986798"
       x2="370.70485"
       y2="57.986798"
       gradientUnits="userSpaceOnUse"
       gradientTransform="translate(-97.433167,57.664527)" /><linearGradient
       inkscape:collect="always"
       xlink:href="#linearGradient45799"
       id="linearGradient45801"
       x1="175.96725"
       y1="187.684"
       x2="332.98594"
       y2="187.684"
       gradientUnits="userSpaceOnUse" /><linearGradient
       inkscape:collect="always"
       xlink:href="#linearGradient48075"
       id="linearGradient48068"
       gradientUnits="userSpaceOnUse"
       gradientTransform="matrix(-0.28032748,0.36539846,-0.38676246,-0.26484275,416.49163,18.208074)"
       x1="307.62732"
       y1="57.986798"
       x2="370.70485"
       y2="57.986798" /><linearGradient
       inkscape:collect="always"
       xlink:href="#linearGradient45799"
       id="linearGradient1240"
       gradientUnits="userSpaceOnUse"
       x1="175.96725"
       y1="187.684"
       x2="332.98594"
       y2="187.684" /><linearGradient
       inkscape:collect="always"
       xlink:href="#linearGradient45799"
       id="linearGradient1242"
       gradientUnits="userSpaceOnUse"
       x1="175.96725"
       y1="187.684"
       x2="332.98594"
       y2="187.684" /></defs><g
     inkscape:label="Layer 1"
     inkscape:groupmode="layer"
     id="layer1"
     style="display:inline"
     transform="matrix(1.0985373,0,0,1.1021847,-24.811546,-26.32899)"><g
       id="g9030"
       inkscape:label="peach"
       style="display:inline;opacity:1;stroke-width:3.70417;stroke-dasharray:none"><g
         id="g26795"
         inkscape:label="skin"
         style="display:inline;stroke-width:3.70417;stroke-dasharray:none"
         transform="translate(2.1449736,25.739683)"><path
           style="opacity:1;fill:url(#radialGradient37161);fill-opacity:1;fill-rule:nonzero;stroke:none;stroke-width:3.70417;stroke-dasharray:none;stroke-opacity:1"
           d="m 248.47426,137.49564 c -20.50923,-4.23936 -42.82531,1.33966 -58.9267,14.73167 -13.76494,11.44871 -22.71429,27.92454 -27.49913,45.17714 -2.52282,9.09647 -3.97544,18.58632 -3.15514,27.99044 0.82029,9.40412 4.02252,18.74411 10.02992,26.0257 4.41876,5.356 10.29005,9.49706 16.80869,11.88862 6.51863,2.39155 13.66727,3.03058 20.51155,1.86094 9.48969,-1.62172 18.13331,-6.61111 25.53491,-12.76745 16.29796,-13.55596 27.34295,-33.27221 30.39111,-54.25068 3.04815,-20.97847 -1.92908,-43.02273 -13.69521,-60.65638 z"
           id="path24742"
           inkscape:path-effect="#path-effect24744"
           inkscape:original-d="m 248.47426,137.49564 c -19.96934,4.91082 -39.28421,9.82138 -58.9267,14.73167 -19.6425,4.9103 -18.33249,30.11836 -27.49913,45.17714 -9.16664,15.05878 4.58345,36.01102 6.87478,54.01614 2.29133,18.00512 24.88043,9.16664 37.32024,13.74956 12.43982,4.58293 17.02354,-8.51136 25.53491,-12.76745 8.51137,-4.25608 11.13086,-76.60444 16.6959,-114.90706 z" /><path
           style="opacity:1;fill:url(#radialGradient32944);fill-opacity:1;fill-rule:nonzero;stroke:none;stroke-width:3.70417;stroke-dasharray:none;stroke-opacity:1"
           d="m 272.04495,130.62086 c -12.35652,2.38397 -24.4734,6.96337 -34.37392,14.73167 -8.74484,6.86151 -15.55503,16.09265 -19.86367,26.33902 -4.30864,10.24638 -6.14036,21.48216 -5.67124,32.58768 0.75239,17.81142 7.58891,35.43834 19.63839,48.57693 12.04948,13.1386 29.32775,21.54271 47.14521,22.13511 15.68663,0.52155 31.5042,-5.03792 43.39081,-15.28735 11.88661,-10.24942 19.71645,-25.09138 21.42857,-40.69301 1.21442,-11.06636 -0.55837,-22.32641 -4.08334,-32.88642 -3.52497,-10.56 -8.76612,-20.47267 -14.5768,-29.96873 -2.88248,-4.71068 -5.92547,-9.35169 -9.59255,-13.48106 -3.66708,-4.12937 -7.99284,-7.75135 -12.99601,-10.08962 -9.36929,-4.37881 -20.29069,-3.9234 -30.44545,-1.96422 z"
           id="path9086"
           inkscape:path-effect="#path-effect9088"
           inkscape:original-d="m 272.04495,130.62086 c -10.14877,-0.65501 -22.91569,9.82138 -34.37392,14.73167 -11.45824,4.91029 -17.02301,39.28473 -25.53491,58.9267 -8.51189,19.64197 44.52267,47.14163 66.7836,70.71204 22.26093,23.57041 43.21318,-37.31998 64.81938,-55.98036 21.60619,-18.66039 -12.43981,-41.90317 -18.66014,-62.85515 -6.2203,-20.95198 -15.05876,-15.71352 -22.58856,-23.57068 -7.52978,-7.85716 -20.29672,-1.30922 -30.44545,-1.96422 z"
           inkscape:label="path9086" /><g
           id="g30648"
           inkscape:label="g30648"
           style="display:inline;stroke-width:3.70417;stroke-dasharray:none"
           transform="translate(-2.1449736,-25.739683)"><path
             style="display:inline;opacity:1;fill:#ffffff;fill-opacity:1;fill-rule:nonzero;stroke:none;stroke-width:3.70417;stroke-dasharray:none;stroke-opacity:1;filter:url(#filter27308)"
             d="m 305.26838,263.1561 c -0.20953,1.83118 0.57752,4.16843 2.17813,5.08231 3.28464,1.87539 7.9716,0.42779 11.25368,-1.45209 4.11661,-2.35787 6.63185,-6.99027 8.71254,-11.25369 3.01208,-6.17185 3.9206,-8.78891 5.08231,-19.96621 0.77569,-7.46323 -0.0515,-14.22255 -2.17815,-21.41829 -0.97066,-3.28432 -3.63022,-9.80161 -3.63022,-9.80161 0,0 1.58226,23.16092 -1.45209,31.58293 -11.03922,30.63996 -18.68678,16.04528 -19.9662,27.22665 z"
             id="path26982"
             sodipodi:nodetypes="aasssscsa" /><path
             style="opacity:0.876404;fill:#ffffff;fill-opacity:1;fill-rule:nonzero;stroke:none;stroke-width:3.70417;stroke-dasharray:none;stroke-opacity:1;filter:url(#filter27369)"
             d="m 237.55626,236.15867 c -4.4191,2.24181 -8.6985,-2.7297 -9.71558,-7.57941 -1.65293,-7.88161 2.01766,-22.51326 9.95689,-23.8625 1.87338,-0.31837 -4.48377,7.89685 -2.77779,13.4586 3.32684,8.67318 4.66733,16.84654 2.53648,17.98331 z"
             id="path27367"
             sodipodi:nodetypes="csccc" /><path
             style="display:inline;opacity:0.861423;fill:#ffffff;fill-opacity:1;fill-rule:nonzero;stroke:none;stroke-width:3.70417;stroke-dasharray:none;stroke-opacity:1;filter:url(#filter27376)"
             d="m 173.5244,251.19884 c 6.80788,-1.49822 2.37163,-4.7649 -0.76168,-7.61686 -5.13723,-4.67594 -3.55453,-16.7571 -3.55453,-16.7571 0,0 -3.72547,26.14371 4.31621,24.37396 z"
             id="path27374"
             sodipodi:nodetypes="sscs"
             inkscape:label="path27374" /></g></g><g
         id="g30715"
         inkscape:label="pan"
         transform="translate(0.4714291,0.94285818)"
         style="display:none;fill:url(#linearGradient45801);fill-opacity:1;stroke-width:3.70417;stroke-dasharray:none"><path
           style="display:inline;opacity:1;fill:url(#linearGradient1240);fill-opacity:1;fill-rule:nonzero;stroke:none;stroke-width:3.70417;stroke-dasharray:none;stroke-opacity:1"
           d="m 176.43868,195.17164 c 37.38642,-15.50169 36.64726,24.04288 36.64726,24.04288 0,0 12.53365,-23.93118 40.07148,-56.10006 -47.89082,-1.99741 -76.71874,32.05718 -76.71874,32.05718 z"
           id="path30717"
           sodipodi:nodetypes="sccs"
           transform="translate(-0.4714291,-0.94285818)" /><path
           style="opacity:1;fill:url(#linearGradient1242);fill-opacity:1;fill-rule:nonzero;stroke:none;stroke-width:3.70417;stroke-dasharray:none;stroke-opacity:1"
           d="m 213.93989,221.46145 c 0,0 79.36402,-58.98678 119.04605,-34.31958 0,0 -25.80772,-47.45061 -69.71166,-28.95714 -48.19388,20.63844 -49.33439,63.27672 -49.33439,63.27672 z"
           id="path30711"
           sodipodi:nodetypes="cscc"
           inkscape:label="path30711" /></g><g
         id="g38680"
         inkscape:label="leaf"
         transform="translate(-9.5112372,5.7067423)"
         style="stroke-width:3.70417;stroke-dasharray:none"><path
           style="display:inline;opacity:1;fill:url(#linearGradient45791);fill-opacity:1;fill-rule:nonzero;stroke:none;stroke-width:3.70417;stroke-dasharray:none;stroke-opacity:1"
           d="m 272.41518,135.21338 c 0,0 12.92479,-58.65875 -61.6414,-33.80335 -7.57734,42.95724 61.6414,33.80335 61.6414,33.80335 z"
           id="path44679"
           sodipodi:nodetypes="ccc" /><path
           style="display:inline;fill:url(#linearGradient48068);fill-opacity:1;fill-rule:nonzero;stroke:none;stroke-width:3.70417;stroke-dasharray:none;stroke-opacity:1"
           d="m 282.81999,132.81184 c 0,0 19.06382,20.25804 30.35364,-13.5711 -14.49011,-14.14566 -30.35364,13.5711 -30.35364,13.5711 z"
           id="path44679-5"
           sodipodi:nodetypes="ccc" /><path
           style="display:inline;opacity:1;fill:none;fill-opacity:1;fill-rule:nonzero;stroke:#441200;stroke-width:3.70417;stroke-dasharray:none;stroke-opacity:1"
           d="m 252.53086,164.04564 c 0,0 15.90745,-4.97109 17.8959,-30.8207 1.98842,-25.84961 -23.8612,-44.739718 -39.76865,-40.762854 -9.58967,18.531984 10.90758,34.463314 30.82069,35.791774 37.78022,1.98843 40.76287,12.92481 40.76287,12.92481"
           id="path38676"
           sodipodi:nodetypes="csccc"
           inkscape:label="path38676" /></g><g
         id="g37891"
         style="display:inline;opacity:0.850704;fill:none;fill-opacity:1;stroke:#2d0c00;stroke-width:3.70417;stroke-linecap:round;stroke-linejoin:round;stroke-dasharray:none;stroke-dashoffset:0;stroke-opacity:1;paint-order:fill markers stroke"
         inkscape:label="stroke"><path
           style="display:inline;opacity:1;fill:none;fill-opacity:1;stroke:#2d0c00;stroke-width:3.70417;stroke-linecap:round;stroke-linejoin:round;stroke-dasharray:none;stroke-dashoffset:0;stroke-opacity:1;paint-order:fill markers stroke"
           d="m 231.13518,245.41117 c -9.82481,5.14793 -20.8609,7.96565 -31.95104,8.15771 -5.57703,0.0966 -11.20488,-0.47065 -16.51524,-2.1773 -5.31036,-1.70666 -10.30262,-4.59198 -14.07618,-8.69964 -5.23576,-5.69931 -7.83542,-13.40005 -8.83752,-21.0741 -1.3545,-10.37267 -0.008,-21.0516 3.60394,-30.86912 3.61156,-9.81752 9.46077,-18.77132 16.79034,-26.23486 17.21516,-17.52983 42.0695,-26.2622 66.62131,-27.19237 3.17093,-0.12013 6.3464,-0.12013 9.51733,0"
           id="path1761"
           inkscape:original-d="m 231.13518,245.41117 c -11.10329,2.4929 -21.30043,5.43874 -31.95104,8.15771 -10.65061,2.71898 -20.39402,-7.25103 -30.59142,-10.87694 -10.19741,-3.62592 -5.89142,-14.04913 -8.83752,-21.0741 -2.94611,-7.02496 13.59645,-38.06905 20.39428,-57.10398 6.79782,-19.03493 44.41447,-18.12798 66.62131,-27.19237 22.20685,-9.06439 6.34515,2.6e-4 9.51733,0"
           inkscape:path-effect="#path-effect1763"
           clip-path="url(#clipPath8918)"
           transform="translate(2.1449736,25.739683)" /><path
           style="display:inline;opacity:1;fill:none;fill-opacity:1;stroke:#2d0c00;stroke-width:3.70417;stroke-linecap:round;stroke-linejoin:round;stroke-dasharray:none;stroke-dashoffset:0;stroke-opacity:1;paint-order:fill markers stroke"
           d="m 301.9409,276.58933 c -7.89045,5.1418 -17.11513,8.21669 -26.51257,8.83752 -17.01984,1.1244 -34.30694,-6.09733 -45.79991,-18.70093 -11.49298,-12.60359 -17.0846,-30.26873 -15.38294,-47.24058 1.19873,-11.95578 5.86363,-23.48464 12.95053,-33.18791 7.08689,-9.70327 16.54962,-17.59401 27.15823,-23.23626 6.95519,-3.69916 14.45924,-6.46642 22.25604,-7.59268 7.79679,-1.12625 15.89987,-0.57104 23.29119,2.1542 11.94441,4.404 21.20835,14.07433 28.55198,24.47314 5.75288,8.14626 10.6342,16.98976 13.59619,26.51256 6.28442,20.20445 3.32937,42.99174 -7.47791,61.18285 -3.06236,5.15465 -6.72001,9.95531 -10.87695,14.27599"
           id="path1131"
           inkscape:original-d="m 301.9409,276.58933 c -8.83727,3.17271 -17.6748,5.89194 -26.51257,8.83752 -8.83779,2.94558 -40.7883,-43.96074 -61.18285,-65.94151 -20.39454,-21.98076 26.73944,-37.61585 40.10876,-56.42417 13.36932,-18.80832 30.36506,-3.62539 45.54723,-5.43848 15.18213,-1.81309 19.03492,16.31569 28.55198,24.47314 9.51706,8.15745 9.06438,17.67531 13.59619,26.51256 4.53179,8.83726 -4.98501,40.78883 -7.47791,61.18285 -2.49288,20.39401 -7.25102,9.51759 -10.87695,14.27599"
           inkscape:path-effect="#path-effect1133" /></g></g><text
       xml:space="preserve"
       style="font-style:normal;font-variant:normal;font-weight:normal;font-stretch:normal;font-size:56.4444px;font-family:Pacifico;-inkscape-font-specification:'Pacifico, Normal';font-variant-ligatures:normal;font-variant-caps:normal;font-variant-numeric:normal;font-variant-east-asian:normal;display:none;opacity:0.850704;fill:#1c1411;stroke-width:3.70417;stroke-linecap:round;stroke-linejoin:round;paint-order:fill markers stroke"
       x="158.84468"
       y="364.7887"
       id="text298"><tspan
         sodipodi:role="line"
         id="tspan296"
         style="font-style:normal;font-variant:normal;font-weight:normal;font-stretch:normal;font-size:56.4444px;font-family:Pacifico;-inkscape-font-specification:'Pacifico, Normal';font-variant-ligatures:normal;font-variant-caps:normal;font-variant-numeric:normal;font-variant-east-asian:normal;stroke-width:3.70417"
         x="158.84468"
         y="364.7887">Shelifts</tspan></text></g></svg>
